<?xml version="1.0" encoding="UTF-8" standalone="no"?>
<!DOCTYPE svg PUBLIC "-//W3C//DTD SVG 1.1//EN"
 "http://www.w3.org/Graphics/SVG/1.1/DTD/svg11.dtd">
<!-- Generated by graphviz version 2.47.0 (20210316.0004)
 -->
<!-- Title: dependencies Pages: 1 -->
<svg width="907pt" height="211pt"
 viewBox="0.00 0.00 907.00 211.00" xmlns="http://www.w3.org/2000/svg" xmlns:xlink="http://www.w3.org/1999/xlink">
<g id="graph0" class="graph" transform="scale(1 1) rotate(0) translate(4 207)">
<title>dependencies</title>
<polygon fill="white" stroke="transparent" points="-4,4 -4,-207 903,-207 903,4 -4,4"/>
<text text-anchor="start" x="428.51" y="-42.4" font-family="Times-12" font-weight="bold" font-size="14.00">Legend</text>
<polygon fill="#ffffb3" stroke="transparent" points="215.5,-10 215.5,-30 235.5,-30 235.5,-10 215.5,-10"/>
<text text-anchor="start" x="239.13" y="-15.4" font-family="Times-12" font-size="14.00"> &#160;Declarations</text>
<polygon fill="#8dd3c7" stroke="transparent" points="328.5,-10 328.5,-30 348.5,-30 348.5,-10 328.5,-10"/>
<text text-anchor="start" x="352.23" y="-15.4" font-family="Times-12" font-size="14.00"> &#160;Module</text>
<polygon fill="#80b1d3" stroke="transparent" points="414.5,-10 414.5,-30 434.5,-30 434.5,-10 414.5,-10"/>
<text text-anchor="start" x="438.28" y="-15.4" font-family="Times-12" font-size="14.00"> &#160;Bootstrap</text>
<polygon fill="#fdb462" stroke="transparent" points="511.5,-10 511.5,-30 531.5,-30 531.5,-10 511.5,-10"/>
<text text-anchor="start" x="535.17" y="-15.4" font-family="Times-12" font-size="14.00"> &#160;Providers</text>
<polygon fill="#fb8072" stroke="transparent" points="607.5,-10 607.5,-30 627.5,-30 627.5,-10 607.5,-10"/>
<text text-anchor="start" x="631.23" y="-15.4" font-family="Times-12" font-size="14.00"> &#160;Exports</text>
<g id="clust1" class="cluster">
<title>cluster_AppModule</title>
<polygon fill="none" stroke="black" stroke-dasharray="1,5" points="8,-70 8,-195 891,-195 891,-70 8,-70"/>
</g>
<g id="clust3" class="cluster">
<title>cluster_AppModule_imports</title>
<polygon fill="none" stroke="black" points="154,-78 154,-130 883,-130 883,-78 154,-78"/>
</g>
<g id="clust6" class="cluster">
<title>cluster_AppModule_providers</title>
<polygon fill="none" stroke="black" points="16,-78 16,-130 146,-130 146,-78 16,-78"/>
</g>
<!-- BookingModule -->
<g id="node1" class="node">
<title>BookingModule</title>
<polygon fill="#8dd3c7" stroke="black" points="874.78,-122 871.78,-126 850.78,-126 847.78,-122 767.22,-122 767.22,-86 874.78,-86 874.78,-122"/>
<text text-anchor="middle" x="821" y="-99.8" font-family="Times,serif" font-size="14.00">BookingModule</text>
</g>
<!-- AppModule -->
<g id="node7" class="node">
<title>AppModule</title>
<polygon fill="#8dd3c7" stroke="black" points="475.66,-187 472.66,-191 451.66,-191 448.66,-187 392.34,-187 392.34,-151 475.66,-151 475.66,-187"/>
<text text-anchor="middle" x="434" y="-164.8" font-family="Times,serif" font-size="14.00">AppModule</text>
</g>
<!-- BookingModule&#45;&gt;AppModule -->
<g id="edge1" class="edge">
<title>BookingModule&#45;&gt;AppModule</title>
<path fill="none" stroke="black" d="M821,-122.29C821,-144.21 821,-178 821,-178 821,-178 485.78,-178 485.78,-178"/>
<polygon fill="black" stroke="black" points="485.78,-174.5 475.78,-178 485.78,-181.5 485.78,-174.5"/>
</g>
<!-- EmailModule -->
<g id="node2" class="node">
<title>EmailModule</title>
<polygon fill="#8dd3c7" stroke="black" points="749.49,-122 746.49,-126 725.49,-126 722.49,-122 656.51,-122 656.51,-86 749.49,-86 749.49,-122"/>
<text text-anchor="middle" x="703" y="-99.8" font-family="Times,serif" font-size="14.00">EmailModule</text>
</g>
<!-- EmailModule&#45;&gt;AppModule -->
<g id="edge2" class="edge">
<title>EmailModule&#45;&gt;AppModule</title>
<path fill="none" stroke="black" d="M703,-122.11C703,-141.34 703,-169 703,-169 703,-169 485.74,-169 485.74,-169"/>
<polygon fill="black" stroke="black" points="485.74,-165.5 475.74,-169 485.74,-172.5 485.74,-165.5"/>
</g>
<!-- MeetingRoomModule -->
<g id="node3" class="node">
<title>MeetingRoomModule</title>
<polygon fill="#8dd3c7" stroke="black" points="638.43,-122 635.43,-126 614.43,-126 611.43,-122 497.57,-122 497.57,-86 638.43,-86 638.43,-122"/>
<text text-anchor="middle" x="568" y="-99.8" font-family="Times,serif" font-size="14.00">MeetingRoomModule</text>
</g>
<!-- MeetingRoomModule&#45;&gt;AppModule -->
<g id="edge3" class="edge">
<title>MeetingRoomModule&#45;&gt;AppModule</title>
<path fill="none" stroke="black" d="M568,-122.03C568,-138.4 568,-160 568,-160 568,-160 485.66,-160 485.66,-160"/>
<polygon fill="black" stroke="black" points="485.66,-156.5 475.66,-160 485.66,-163.5 485.66,-156.5"/>
</g>
<!-- RedisModule -->
<g id="node4" class="node">
<title>RedisModule</title>
<polygon fill="#8dd3c7" stroke="black" points="479.94,-122 476.94,-126 455.94,-126 452.94,-122 388.06,-122 388.06,-86 479.94,-86 479.94,-122"/>
<text text-anchor="middle" x="434" y="-99.8" font-family="Times,serif" font-size="14.00">RedisModule</text>
</g>
<!-- RedisModule&#45;&gt;AppModule -->
<g id="edge4" class="edge">
<title>RedisModule&#45;&gt;AppModule</title>
<path fill="none" stroke="black" d="M434,-122.11C434,-122.11 434,-140.99 434,-140.99"/>
<polygon fill="black" stroke="black" points="430.5,-140.99 434,-150.99 437.5,-140.99 430.5,-140.99"/>
</g>
<!-- StatisticModule -->
<g id="node5" class="node">
<title>StatisticModule</title>
<polygon fill="#8dd3c7" stroke="black" points="370.16,-122 367.16,-126 346.16,-126 343.16,-122 265.84,-122 265.84,-86 370.16,-86 370.16,-122"/>
<text text-anchor="middle" x="318" y="-99.8" font-family="Times,serif" font-size="14.00">StatisticModule</text>
</g>
<!-- StatisticModule&#45;&gt;AppModule -->
<g id="edge5" class="edge">
<title>StatisticModule&#45;&gt;AppModule</title>
<path fill="none" stroke="black" d="M318,-122.03C318,-138.4 318,-160 318,-160 318,-160 382.12,-160 382.12,-160"/>
<polygon fill="black" stroke="black" points="382.12,-163.5 392.12,-160 382.12,-156.5 382.12,-163.5"/>
</g>
<!-- UserModule -->
<g id="node6" class="node">
<title>UserModule</title>
<polygon fill="#8dd3c7" stroke="black" points="247.98,-122 244.98,-126 223.98,-126 220.98,-122 162.02,-122 162.02,-86 247.98,-86 247.98,-122"/>
<text text-anchor="middle" x="205" y="-99.8" font-family="Times,serif" font-size="14.00">UserModule</text>
</g>
<!-- UserModule&#45;&gt;AppModule -->
<g id="edge6" class="edge">
<title>UserModule&#45;&gt;AppModule</title>
<path fill="none" stroke="black" d="M205,-122.11C205,-141.34 205,-169 205,-169 205,-169 382.26,-169 382.26,-169"/>
<polygon fill="black" stroke="black" points="382.26,-172.5 392.26,-169 382.26,-165.5 382.26,-172.5"/>
</g>
<!-- AppService -->
<g id="node8" class="node">
<title>AppService</title>
<ellipse fill="#fdb462" stroke="black" cx="81" cy="-104" rx="56.74" ry="18"/>
<text text-anchor="middle" x="81" y="-99.8" font-family="Times,serif" font-size="14.00">AppService</text>
</g>
<!-- AppService&#45;&gt;AppModule -->
<g id="edge7" class="edge">
<title>AppService&#45;&gt;AppModule</title>
<path fill="none" stroke="black" d="M81,-122.29C81,-144.21 81,-178 81,-178 81,-178 382.12,-178 382.12,-178"/>
<polygon fill="black" stroke="black" points="382.12,-181.5 392.12,-178 382.12,-174.5 382.12,-181.5"/>
</g>
</g>
</svg>
