<?xml version="1.0" encoding="UTF-8" standalone="no"?>
<!DOCTYPE svg PUBLIC "-//W3C//DTD SVG 1.1//EN"
 "http://www.w3.org/Graphics/SVG/1.1/DTD/svg11.dtd">
<!-- Generated by graphviz version 2.47.0 (20210316.0004)
 -->
<!-- Title: dependencies Pages: 1 -->
<svg width="1473pt" height="298pt"
 viewBox="0.00 0.00 1473.00 298.00" xmlns="http://www.w3.org/2000/svg" xmlns:xlink="http://www.w3.org/1999/xlink">
<g id="graph0" class="graph" transform="scale(1 1) rotate(0) translate(4 294)">
<title>dependencies</title>
<polygon fill="white" stroke="transparent" points="-4,4 -4,-294 1469,-294 1469,4 -4,4"/>
<text text-anchor="start" x="711.51" y="-42.4" font-family="Times-12" font-weight="bold" font-size="14.00">Legend</text>
<polygon fill="#ffffb3" stroke="transparent" points="498.5,-10 498.5,-30 518.5,-30 518.5,-10 498.5,-10"/>
<text text-anchor="start" x="522.13" y="-15.4" font-family="Times-12" font-size="14.00"> &#160;Declarations</text>
<polygon fill="#8dd3c7" stroke="transparent" points="611.5,-10 611.5,-30 631.5,-30 631.5,-10 611.5,-10"/>
<text text-anchor="start" x="635.23" y="-15.4" font-family="Times-12" font-size="14.00"> &#160;Module</text>
<polygon fill="#80b1d3" stroke="transparent" points="697.5,-10 697.5,-30 717.5,-30 717.5,-10 697.5,-10"/>
<text text-anchor="start" x="721.28" y="-15.4" font-family="Times-12" font-size="14.00"> &#160;Bootstrap</text>
<polygon fill="#fdb462" stroke="transparent" points="794.5,-10 794.5,-30 814.5,-30 814.5,-10 794.5,-10"/>
<text text-anchor="start" x="818.17" y="-15.4" font-family="Times-12" font-size="14.00"> &#160;Providers</text>
<polygon fill="#fb8072" stroke="transparent" points="890.5,-10 890.5,-30 910.5,-30 910.5,-10 890.5,-10"/>
<text text-anchor="start" x="914.23" y="-15.4" font-family="Times-12" font-size="14.00"> &#160;Exports</text>
<g id="clust1" class="cluster">
<title>cluster_AppModule</title>
<polygon fill="none" stroke="black" stroke-dasharray="1,5" points="8,-146 8,-274 891,-274 891,-146 8,-146"/>
</g>
<g id="clust3" class="cluster">
<title>cluster_AppModule_imports</title>
<polygon fill="none" stroke="black" points="154,-154 154,-206 883,-206 883,-154 154,-154"/>
</g>
<g id="clust6" class="cluster">
<title>cluster_AppModule_providers</title>
<polygon fill="none" stroke="black" points="16,-154 16,-206 146,-206 146,-154 16,-154"/>
</g>
<g id="clust7" class="cluster">
<title>cluster_BookingModule</title>
<polygon fill="none" stroke="black" stroke-dasharray="1,5" points="30,-70 30,-138 208,-138 208,-70 30,-70"/>
</g>
<g id="clust12" class="cluster">
<title>cluster_BookingModule_providers</title>
<polygon fill="none" stroke="black" points="38,-78 38,-130 200,-130 200,-78 38,-78"/>
</g>
<g id="clust13" class="cluster">
<title>cluster_EmailModule</title>
<polygon fill="none" stroke="black" stroke-dasharray="1,5" points="899,-214 899,-282 1175,-282 1175,-214 899,-214"/>
</g>
<g id="clust16" class="cluster">
<title>cluster_EmailModule_exports</title>
<polygon fill="none" stroke="black" points="1057,-222 1057,-274 1167,-274 1167,-222 1057,-222"/>
</g>
<g id="clust18" class="cluster">
<title>cluster_EmailModule_providers</title>
<polygon fill="none" stroke="black" points="907,-222 907,-274 1049,-274 1049,-222 907,-222"/>
</g>
<g id="clust19" class="cluster">
<title>cluster_MeetingRoomModule</title>
<polygon fill="none" stroke="black" stroke-dasharray="1,5" points="216,-70 216,-138 440,-138 440,-70 216,-70"/>
</g>
<g id="clust24" class="cluster">
<title>cluster_MeetingRoomModule_providers</title>
<polygon fill="none" stroke="black" points="224,-78 224,-130 432,-130 432,-78 224,-78"/>
</g>
<g id="clust25" class="cluster">
<title>cluster_RedisModule</title>
<polygon fill="none" stroke="black" stroke-dasharray="1,5" points="1183,-214 1183,-282 1457,-282 1457,-214 1183,-214"/>
</g>
<g id="clust28" class="cluster">
<title>cluster_RedisModule_exports</title>
<polygon fill="none" stroke="black" points="1339,-222 1339,-274 1449,-274 1449,-222 1339,-222"/>
</g>
<g id="clust30" class="cluster">
<title>cluster_RedisModule_providers</title>
<polygon fill="none" stroke="black" points="1191,-222 1191,-274 1331,-274 1331,-222 1191,-222"/>
</g>
<g id="clust31" class="cluster">
<title>cluster_StatisticModule</title>
<polygon fill="none" stroke="black" stroke-dasharray="1,5" points="448,-70 448,-138 622,-138 622,-70 448,-70"/>
</g>
<g id="clust36" class="cluster">
<title>cluster_StatisticModule_providers</title>
<polygon fill="none" stroke="black" points="456,-78 456,-130 614,-130 614,-78 456,-78"/>
</g>
<g id="clust37" class="cluster">
<title>cluster_UserModule</title>
<polygon fill="none" stroke="black" stroke-dasharray="1,5" points="630,-70 630,-138 778,-138 778,-70 630,-70"/>
</g>
<g id="clust42" class="cluster">
<title>cluster_UserModule_providers</title>
<polygon fill="none" stroke="black" points="638,-78 638,-130 770,-130 770,-78 638,-78"/>
</g>
<!-- BookingModule -->
<g id="node1" class="node">
<title>BookingModule</title>
<polygon fill="#8dd3c7" stroke="black" points="269.78,-198 266.78,-202 245.78,-202 242.78,-198 162.22,-198 162.22,-162 269.78,-162 269.78,-198"/>
<text text-anchor="middle" x="216" y="-175.8" font-family="Times,serif" font-size="14.00">BookingModule</text>
</g>
<!-- AppModule -->
<g id="node7" class="node">
<title>AppModule</title>
<polygon fill="#8dd3c7" stroke="black" points="540.66,-266 537.66,-270 516.66,-270 513.66,-266 457.34,-266 457.34,-230 540.66,-230 540.66,-266"/>
<text text-anchor="middle" x="499" y="-243.8" font-family="Times,serif" font-size="14.00">AppModule</text>
</g>
<!-- BookingModule&#45;&gt;AppModule -->
<g id="edge1" class="edge">
<title>BookingModule&#45;&gt;AppModule</title>
<path fill="none" stroke="black" d="M216,-198.22C216,-218.37 216,-248 216,-248 216,-248 447.24,-248 447.24,-248"/>
<polygon fill="black" stroke="black" points="447.24,-251.5 457.24,-248 447.24,-244.5 447.24,-251.5"/>
</g>
<!-- EmailModule -->
<g id="node2" class="node">
<title>EmailModule</title>
<polygon fill="#8dd3c7" stroke="black" points="765.49,-198 762.49,-202 741.49,-202 738.49,-198 672.51,-198 672.51,-162 765.49,-162 765.49,-198"/>
<text text-anchor="middle" x="719" y="-175.8" font-family="Times,serif" font-size="14.00">EmailModule</text>
</g>
<!-- EmailModule&#45;&gt;AppModule -->
<g id="edge2" class="edge">
<title>EmailModule&#45;&gt;AppModule</title>
<path fill="none" stroke="black" d="M719,-198.17C719,-219.5 719,-252 719,-252 719,-252 550.9,-252 550.9,-252"/>
<polygon fill="black" stroke="black" points="550.9,-248.5 540.9,-252 550.9,-255.5 550.9,-248.5"/>
</g>
<!-- EmailService  -->
<g id="node10" class="node">
<title>EmailService </title>
<polygon fill="#fb8072" stroke="black" points="1159.42,-266 1064.58,-266 1064.58,-230 1159.42,-230 1159.42,-266"/>
<text text-anchor="middle" x="1112" y="-243.8" font-family="Times,serif" font-size="14.00">EmailService </text>
</g>
<!-- EmailModule&#45;&gt;EmailService  -->
<g id="edge9" class="edge">
<title>EmailModule&#45;&gt;EmailService </title>
<path fill="none" stroke="black" stroke-dasharray="5,2" d="M695.75,-198.19C695.75,-206.28 695.75,-214 695.75,-214 695.75,-214 1112,-214 1112,-214 1112,-214 1112,-219.81 1112,-219.81"/>
<polygon fill="black" stroke="black" points="1108.5,-219.81 1112,-229.81 1115.5,-219.81 1108.5,-219.81"/>
</g>
<!-- MeetingRoomModule -->
<g id="node3" class="node">
<title>MeetingRoomModule</title>
<polygon fill="#8dd3c7" stroke="black" points="428.43,-198 425.43,-202 404.43,-202 401.43,-198 287.57,-198 287.57,-162 428.43,-162 428.43,-198"/>
<text text-anchor="middle" x="358" y="-175.8" font-family="Times,serif" font-size="14.00">MeetingRoomModule</text>
</g>
<!-- MeetingRoomModule&#45;&gt;AppModule -->
<g id="edge3" class="edge">
<title>MeetingRoomModule&#45;&gt;AppModule</title>
<path fill="none" stroke="black" d="M358,-198.02C358,-215.37 358,-239 358,-239 358,-239 447.08,-239 447.08,-239"/>
<polygon fill="black" stroke="black" points="447.08,-242.5 457.08,-239 447.08,-235.5 447.08,-242.5"/>
</g>
<!-- RedisModule -->
<g id="node4" class="node">
<title>RedisModule</title>
<polygon fill="#8dd3c7" stroke="black" points="874.94,-198 871.94,-202 850.94,-202 847.94,-198 783.06,-198 783.06,-162 874.94,-162 874.94,-198"/>
<text text-anchor="middle" x="829" y="-175.8" font-family="Times,serif" font-size="14.00">RedisModule</text>
</g>
<!-- RedisModule&#45;&gt;AppModule -->
<g id="edge4" class="edge">
<title>RedisModule&#45;&gt;AppModule</title>
<path fill="none" stroke="black" d="M829,-198.32C829,-221.66 829,-259 829,-259 829,-259 550.79,-259 550.79,-259"/>
<polygon fill="black" stroke="black" points="550.79,-255.5 540.79,-259 550.79,-262.5 550.79,-255.5"/>
</g>
<!-- RedisService  -->
<g id="node13" class="node">
<title>RedisService </title>
<polygon fill="#fb8072" stroke="black" points="1440.86,-266 1347.14,-266 1347.14,-230 1440.86,-230 1440.86,-266"/>
<text text-anchor="middle" x="1394" y="-243.8" font-family="Times,serif" font-size="14.00">RedisService </text>
</g>
<!-- RedisModule&#45;&gt;RedisService  -->
<g id="edge12" class="edge">
<title>RedisModule&#45;&gt;RedisService </title>
<path fill="none" stroke="black" stroke-dasharray="5,2" d="M874.76,-174C1009.26,-174 1394,-174 1394,-174 1394,-174 1394,-219.71 1394,-219.71"/>
<polygon fill="black" stroke="black" points="1390.5,-219.71 1394,-229.71 1397.5,-219.71 1390.5,-219.71"/>
</g>
<!-- StatisticModule -->
<g id="node5" class="node">
<title>StatisticModule</title>
<polygon fill="#8dd3c7" stroke="black" points="551.16,-198 548.16,-202 527.16,-202 524.16,-198 446.84,-198 446.84,-162 551.16,-162 551.16,-198"/>
<text text-anchor="middle" x="499" y="-175.8" font-family="Times,serif" font-size="14.00">StatisticModule</text>
</g>
<!-- StatisticModule&#45;&gt;AppModule -->
<g id="edge5" class="edge">
<title>StatisticModule&#45;&gt;AppModule</title>
<path fill="none" stroke="black" d="M499,-198.22C499,-198.22 499,-219.73 499,-219.73"/>
<polygon fill="black" stroke="black" points="495.5,-219.73 499,-229.73 502.5,-219.73 495.5,-219.73"/>
</g>
<!-- UserModule -->
<g id="node6" class="node">
<title>UserModule</title>
<polygon fill="#8dd3c7" stroke="black" points="654.98,-198 651.98,-202 630.98,-202 627.98,-198 569.02,-198 569.02,-162 654.98,-162 654.98,-198"/>
<text text-anchor="middle" x="612" y="-175.8" font-family="Times,serif" font-size="14.00">UserModule</text>
</g>
<!-- UserModule&#45;&gt;AppModule -->
<g id="edge6" class="edge">
<title>UserModule&#45;&gt;AppModule</title>
<path fill="none" stroke="black" d="M612,-198.11C612,-217.34 612,-245 612,-245 612,-245 550.76,-245 550.76,-245"/>
<polygon fill="black" stroke="black" points="550.76,-241.5 540.76,-245 550.76,-248.5 550.76,-241.5"/>
</g>
<!-- AppService -->
<g id="node8" class="node">
<title>AppService</title>
<ellipse fill="#fdb462" stroke="black" cx="81" cy="-180" rx="56.74" ry="18"/>
<text text-anchor="middle" x="81" y="-175.8" font-family="Times,serif" font-size="14.00">AppService</text>
</g>
<!-- AppService&#45;&gt;AppModule -->
<g id="edge7" class="edge">
<title>AppService&#45;&gt;AppModule</title>
<path fill="none" stroke="black" d="M81,-198.25C81,-221.02 81,-257 81,-257 81,-257 447.01,-257 447.01,-257"/>
<polygon fill="black" stroke="black" points="447.01,-260.5 457.01,-257 447.01,-253.5 447.01,-260.5"/>
</g>
<!-- BookingService -->
<g id="node9" class="node">
<title>BookingService</title>
<ellipse fill="#fdb462" stroke="black" cx="119" cy="-104" rx="73.02" ry="18"/>
<text text-anchor="middle" x="119" y="-99.8" font-family="Times,serif" font-size="14.00">BookingService</text>
</g>
<!-- BookingService&#45;&gt;BookingModule -->
<g id="edge8" class="edge">
<title>BookingService&#45;&gt;BookingModule</title>
<path fill="none" stroke="black" d="M177.18,-115.21C177.18,-115.21 177.18,-151.96 177.18,-151.96"/>
<polygon fill="black" stroke="black" points="173.68,-151.96 177.18,-161.96 180.68,-151.96 173.68,-151.96"/>
</g>
<!-- EmailService -->
<g id="node11" class="node">
<title>EmailService</title>
<ellipse fill="#fdb462" stroke="black" cx="978" cy="-248" rx="63.12" ry="18"/>
<text text-anchor="middle" x="978" y="-243.8" font-family="Times,serif" font-size="14.00">EmailService</text>
</g>
<!-- EmailService&#45;&gt;EmailModule -->
<g id="edge10" class="edge">
<title>EmailService&#45;&gt;EmailModule</title>
<path fill="none" stroke="black" d="M925.39,-238C855.9,-238 742.25,-238 742.25,-238 742.25,-238 742.25,-208.03 742.25,-208.03"/>
<polygon fill="black" stroke="black" points="745.75,-208.03 742.25,-198.03 738.75,-208.03 745.75,-208.03"/>
</g>
<!-- MeetingRoomService -->
<g id="node12" class="node">
<title>MeetingRoomService</title>
<ellipse fill="#fdb462" stroke="black" cx="328" cy="-104" rx="95.57" ry="18"/>
<text text-anchor="middle" x="328" y="-99.8" font-family="Times,serif" font-size="14.00">MeetingRoomService</text>
</g>
<!-- MeetingRoomService&#45;&gt;MeetingRoomModule -->
<g id="edge11" class="edge">
<title>MeetingRoomService&#45;&gt;MeetingRoomModule</title>
<path fill="none" stroke="black" d="M355.78,-121.25C355.78,-121.25 355.78,-151.76 355.78,-151.76"/>
<polygon fill="black" stroke="black" points="352.28,-151.76 355.78,-161.76 359.28,-151.76 352.28,-151.76"/>
</g>
<!-- RedisService -->
<g id="node14" class="node">
<title>RedisService</title>
<ellipse fill="#fdb462" stroke="black" cx="1261" cy="-248" rx="61.97" ry="18"/>
<text text-anchor="middle" x="1261" y="-243.8" font-family="Times,serif" font-size="14.00">RedisService</text>
</g>
<!-- RedisService&#45;&gt;RedisModule -->
<g id="edge13" class="edge">
<title>RedisService&#45;&gt;RedisModule</title>
<path fill="none" stroke="black" d="M1261,-229.73C1261,-211.44 1261,-186 1261,-186 1261,-186 884.82,-186 884.82,-186"/>
<polygon fill="black" stroke="black" points="884.82,-182.5 874.82,-186 884.82,-189.5 884.82,-182.5"/>
</g>
<!-- StatisticService -->
<g id="node15" class="node">
<title>StatisticService</title>
<ellipse fill="#fdb462" stroke="black" cx="535" cy="-104" rx="71.22" ry="18"/>
<text text-anchor="middle" x="535" y="-99.8" font-family="Times,serif" font-size="14.00">StatisticService</text>
</g>
<!-- StatisticService&#45;&gt;StatisticModule -->
<g id="edge14" class="edge">
<title>StatisticService&#45;&gt;StatisticModule</title>
<path fill="none" stroke="black" d="M507.61,-120.87C507.61,-120.87 507.61,-151.85 507.61,-151.85"/>
<polygon fill="black" stroke="black" points="504.11,-151.85 507.61,-161.85 511.11,-151.85 504.11,-151.85"/>
</g>
<!-- UserService -->
<g id="node16" class="node">
<title>UserService</title>
<ellipse fill="#fdb462" stroke="black" cx="704" cy="-104" rx="58.44" ry="18"/>
<text text-anchor="middle" x="704" y="-99.8" font-family="Times,serif" font-size="14.00">UserService</text>
</g>
<!-- UserService&#45;&gt;UserModule -->
<g id="edge15" class="edge">
<title>UserService&#45;&gt;UserModule</title>
<path fill="none" stroke="black" d="M650.38,-111.29C650.38,-111.29 650.38,-151.73 650.38,-151.73"/>
<polygon fill="black" stroke="black" points="646.88,-151.73 650.38,-161.73 653.88,-151.73 646.88,-151.73"/>
</g>
</g>
</svg>
